<?xml version="1.0" encoding="UTF-8" standalone="no"?>
<!-- Created with Inkscape (http://www.inkscape.org/) -->

<svg
   xmlns:dc="http://purl.org/dc/elements/1.1/"
   xmlns:cc="http://creativecommons.org/ns#"
   xmlns:rdf="http://www.w3.org/1999/02/22-rdf-syntax-ns#"
   xmlns:svg="http://www.w3.org/2000/svg"
   xmlns="http://www.w3.org/2000/svg"
   xmlns:sodipodi="http://sodipodi.sourceforge.net/DTD/sodipodi-0.dtd"
   xmlns:inkscape="http://www.inkscape.org/namespaces/inkscape"
   width="1674.1412mm"
   height="441.93469mm"
   viewBox="0 0 1674.1412 441.93471"
   version="1.1"
   id="svg8"
   inkscape:version="0.92.2 5c3e80d, 2017-08-06"
   sodipodi:docname="xiaoju_logo-01a-blue_more_blue_padded_withText_realisa.svg"
   inkscape:export-filename="/Users/xiaoju/Documents/PROJECTS/udacity_assignements/34-xiaoju/xiaoju_logo_design/aaa.png"
   inkscape:export-xdpi="70"
   inkscape:export-ydpi="70">
  <defs
     id="defs2" />
  <sodipodi:namedview
     id="base"
     pagecolor="#ffffff"
     bordercolor="#666666"
     borderopacity="1.0"
     inkscape:pageopacity="0.0"
     inkscape:pageshadow="2"
     inkscape:zoom="0.087500003"
     inkscape:cx="3574.0428"
     inkscape:cy="1760.1429"
     inkscape:document-units="mm"
     inkscape:current-layer="layer3"
     showgrid="false"
     objecttolerance="1"
     guidetolerance="1"
     inkscape:window-width="1280"
     inkscape:window-height="751"
     inkscape:window-x="0"
     inkscape:window-y="1"
     inkscape:window-maximized="1"
     fit-margin-top="0"
     fit-margin-left="0"
     fit-margin-right="0"
     fit-margin-bottom="0"
     gridtolerance="1"
     showguides="true"
     inkscape:guide-bbox="true">
    <sodipodi:guide
       position="380.31924,339.1812"
       orientation="0,1"
       id="guide865"
       inkscape:locked="false" />
    <sodipodi:guide
       position="353.10496,24.705003"
       orientation="0,1"
       id="guide867"
       inkscape:locked="false" />
  </sodipodi:namedview>
  <metadata
     id="metadata5">
    <rdf:RDF>
      <cc:Work
         rdf:about="">
        <dc:format>image/svg+xml</dc:format>
        <dc:type
           rdf:resource="http://purl.org/dc/dcmitype/StillImage" />
        <dc:title></dc:title>
      </cc:Work>
    </rdf:RDF>
  </metadata>
  <g
     inkscape:groupmode="layer"
     id="layer3"
     inkscape:label="background"
     transform="translate(-89.49297,147.9425)"
     style="display:inline">
    <text
       xml:space="preserve"
       style="font-style:normal;font-variant:normal;font-weight:normal;font-stretch:normal;font-size:141.1111145px;line-height:1.25;font-family:'Futura Std';-inkscape-font-specification:'Futura Std, weight=650';font-variant-ligatures:normal;font-variant-caps:normal;font-variant-numeric:normal;text-align:start;letter-spacing:0px;word-spacing:0px;writing-mode:lr-tb;text-anchor:start;fill:#000000;fill-opacity:1;stroke:none;stroke-width:0.26458332"
       x="712.90503"
       y="-44.01416"
       id="text50"><tspan
         sodipodi:role="line"
         id="tspan48"
         x="712.90503"
         y="-44.01416"
         style="font-style:normal;font-variant:normal;font-weight:normal;font-stretch:normal;font-size:141.1111145px;font-family:Lato;-inkscape-font-specification:Lato;fill:#0d013a;fill-opacity:1;stroke-width:0.26458332">réalisation</tspan></text>
  </g>
  <g
     inkscape:groupmode="layer"
     id="layer2"
     inkscape:label="blue"
     style="display:inline"
     transform="translate(-89.49297,147.9425)" />
  <g
     inkscape:groupmode="layer"
     id="layer1"
     inkscape:label="black"
     style="display:inline"
     transform="translate(-91.901085,149.95035)">
    <rect
       style="display:inline;opacity:1;fill:#0e0140;fill-opacity:1;stroke:none;stroke-width:0.78763777;stroke-linejoin:round;stroke-miterlimit:4;stroke-dasharray:none;stroke-opacity:1"
       id="rect853"
       width="314.85416"
       height="314.85416"
       x="91.901085"
       y="-44.551018" />
    <g
       id="g998"
       transform="translate(15.081036)">
      <path
         d="m 556.07334,47.151445 -57.35546,84.883855 62.93367,92.48538 h -30.46561 l -46.91419,-71.10606 -46.77116,71.10606 H 407.03498 L 469.96865,132.0353 412.61319,47.151445 h 29.17834 l 42.48022,64.137985 42.19416,-64.137985 z"
         style="font-style:normal;font-variant:normal;font-weight:normal;font-stretch:normal;font-size:421.81655884px;line-height:1.25;font-family:Menlo;-inkscape-font-specification:Menlo;font-variant-ligatures:normal;font-variant-caps:normal;font-variant-numeric:normal;text-align:start;letter-spacing:0px;word-spacing:0px;writing-mode:lr-tb;text-anchor:start;display:inline;fill:#0e0140;fill-opacity:1;stroke:none;stroke-width:1.60536587"
         id="path846"
         inkscape:connector-curvature="0" />
      <path
         d="m 597.46824,47.784907 h 67.36762 V 201.87443 h 52.20633 v 22.64625 H 586.31181 v -22.64625 h 52.20633 V 70.431157 h -41.0499 z m 41.0499,-68.888944 h 26.31772 v 36.74077 h -26.31772 z"
         style="font-style:normal;font-variant:normal;font-weight:normal;font-stretch:normal;font-size:421.81655884px;line-height:1.25;font-family:Menlo;-inkscape-font-specification:Menlo;font-variant-ligatures:normal;font-variant-caps:normal;font-variant-numeric:normal;text-align:start;letter-spacing:0px;word-spacing:0px;writing-mode:lr-tb;text-anchor:start;display:inline;fill:#0e0140;fill-opacity:1;stroke:none;stroke-width:1.60536587"
         id="path848"
         inkscape:connector-curvature="0" />
      <path
         d="m 815.66323,135.36097 h -8.72489 q -23.028,0 -34.75655,9.02683 -11.58552,8.86846 -11.58552,26.60538 0,15.99491 8.7249,24.86336 8.72489,8.86847 24.17225,8.86847 21.74072,0 34.18442,-16.62837 12.44372,-16.78673 12.58671,-46.24269 v -6.49298 z m 51.0621,-12.03577 v 101.19548 h -26.46078 v -26.28865 q -8.4388,15.83654 -21.31161,23.43808 -12.72976,7.44317 -31.03773,7.44317 -24.45831,0 -39.04748,-15.20308 -14.58917,-15.36144 -14.58917,-41.01663 0,-29.61433 17.87888,-44.97577 18.02192,-15.36145 52.77846,-15.36145 h 35.32865 v -4.59259 q -0.14299,-21.220968 -9.72609,-30.722891 -9.58308,-9.660289 -30.60865,-9.660289 -13.44491,0 -27.17589,4.275866 -13.73099,4.275865 -26.74681,12.510865 V 55.22808 q 14.58916,-6.17625 27.89105,-9.185193 13.44492,-3.167308 26.03165,-3.167308 19.88132,0 33.89836,6.492982 14.16011,6.49298 22.88496,19.478943 5.4352,7.918268 7.72366,19.637307 2.28854,11.560679 2.28854,34.840389 z"
         style="font-style:normal;font-variant:normal;font-weight:normal;font-stretch:normal;font-size:421.81655884px;line-height:1.25;font-family:Menlo;-inkscape-font-specification:Menlo;font-variant-ligatures:normal;font-variant-caps:normal;font-variant-numeric:normal;text-align:start;letter-spacing:0px;word-spacing:0px;writing-mode:lr-tb;text-anchor:start;display:inline;fill:#0e0140;fill-opacity:1;stroke:none;stroke-width:1.60536587"
         id="path850"
         inkscape:connector-curvature="0" />
      <path
         d="m 973.75597,67.58058 q -20.0244,0 -30.32257,17.261827 -10.29824,17.261833 -10.29824,51.152023 0,33.73183 10.29824,51.15202 10.29817,17.26183 30.32257,17.26183 20.16673,0 30.46443,-17.26183 10.2983,-17.42019 10.2983,-51.15202 0,-33.89019 -10.2983,-51.152023 Q 993.9227,67.58058 973.75597,67.58058 Z m 0,-24.705001 q 33.32513,0 50.91823,23.913174 17.7354,23.913174 17.7354,69.205677 0,45.45087 -17.5923,69.36404 -17.5933,23.75481 -51.06133,23.75481 -33.32624,0 -50.91906,-23.75481 -17.59281,-23.91317 -17.59281,-69.36404 0,-45.292503 17.59281,-69.205677 17.59282,-23.913174 50.91906,-23.913174 z"
         style="font-style:normal;font-variant:normal;font-weight:normal;font-stretch:normal;font-size:421.81655884px;line-height:1.25;font-family:Menlo;-inkscape-font-specification:Menlo;font-variant-ligatures:normal;font-variant-caps:normal;font-variant-numeric:normal;text-align:start;letter-spacing:0px;word-spacing:0px;writing-mode:lr-tb;text-anchor:start;display:inline;fill:#0e0140;fill-opacity:1;stroke:none;stroke-width:1.60536587"
         id="path852"
         inkscape:connector-curvature="0" />
      <path
         d="M 1111.6944,227.68799 V 69.797695 h -45.3408 v -22.64625 h 71.6585 V 227.68799 q 0,30.88125 -12.8727,47.50962 -12.7298,16.78673 -36.3299,16.78673 h -36.3299 v -24.705 h 33.4692 q 12.8729,0 19.3092,-9.97702 6.4364,-9.81866 6.4364,-29.61433 z m 0,-249.583854 h 26.3177 v 36.899136 h -26.3177 z"
         style="font-style:normal;font-variant:normal;font-weight:normal;font-stretch:normal;font-size:421.81655884px;line-height:1.25;font-family:Menlo;-inkscape-font-specification:Menlo;font-variant-ligatures:normal;font-variant-caps:normal;font-variant-numeric:normal;text-align:start;letter-spacing:0px;word-spacing:0px;writing-mode:lr-tb;text-anchor:start;display:inline;fill:#0e0140;fill-opacity:1;stroke:none;stroke-width:1.60536587"
         id="path854"
         inkscape:connector-curvature="0" />
      <path
         d="M 1204.5795,157.37376 V 47.468176 h 26.3178 V 157.37376 q 0,23.91317 7.5806,35.15712 7.7236,11.24394 23.7431,11.24394 18.5941,0 28.4632,-14.41126 9.8692,-14.56961 9.8692,-41.65009 V 47.468176 h 26.4607 V 224.52068 h -26.4607 V 197.9153 q -7.0086,15.36144 -19.1662,23.27971 -12.0146,7.91827 -28.1771,7.91827 -24.6014,0 -36.6159,-17.73693 -12.0147,-17.89528 -12.0147,-54.00259 z"
         style="font-style:normal;font-variant:normal;font-weight:normal;font-stretch:normal;font-size:421.81655884px;line-height:1.25;font-family:Menlo;-inkscape-font-specification:Menlo;font-variant-ligatures:normal;font-variant-caps:normal;font-variant-numeric:normal;text-align:start;letter-spacing:0px;word-spacing:0px;writing-mode:lr-tb;text-anchor:start;display:inline;fill:#0e0140;fill-opacity:1;stroke:none;stroke-width:1.60536587"
         id="path856"
         inkscape:connector-curvature="0" />
      <path
         d="m 1367.2642,160.54106 h 50.347 v 63.97962 h -50.347 z"
         style="font-style:normal;font-variant:normal;font-weight:normal;font-stretch:normal;font-size:421.81655884px;line-height:1.25;font-family:Menlo;-inkscape-font-specification:Menlo;font-variant-ligatures:normal;font-variant-caps:normal;font-variant-numeric:normal;text-align:start;letter-spacing:0px;word-spacing:0px;writing-mode:lr-tb;text-anchor:start;display:inline;fill:#0e0140;fill-opacity:1;stroke:none;stroke-width:1.60536587"
         id="path858"
         inkscape:connector-curvature="0" />
      <path
         d="m 1463.1828,47.784907 h 67.3676 V 201.87443 h 52.2064 v 22.64625 h -130.7304 v -22.64625 h 52.2063 V 70.431157 h -41.0499 z m 41.0499,-68.888944 h 26.3177 v 36.74077 h -26.3177 z"
         style="font-style:normal;font-variant:normal;font-weight:normal;font-stretch:normal;font-size:421.81655884px;line-height:1.25;font-family:Menlo;-inkscape-font-specification:Menlo;font-variant-ligatures:normal;font-variant-caps:normal;font-variant-numeric:normal;text-align:start;letter-spacing:0px;word-spacing:0px;writing-mode:lr-tb;text-anchor:start;display:inline;fill:#0e0140;fill-opacity:1;stroke:none;stroke-width:1.60536587"
         id="path860"
         inkscape:connector-curvature="0" />
      <path
         d="m 1682.3064,67.58058 q -20.0243,0 -30.3226,17.261827 -10.2982,17.261833 -10.2982,51.152023 0,33.73183 10.2982,51.15202 10.2983,17.26183 30.3226,17.26183 20.1674,0 30.4656,-17.26183 10.2982,-17.42019 10.2982,-51.15202 0,-33.89019 -10.2982,-51.152023 -10.2982,-17.261827 -30.4656,-17.261827 z m 0,-24.705001 q 33.3262,0 50.9191,23.913174 17.7358,23.913174 17.7358,69.205677 0,45.45087 -17.5929,69.36404 -17.5928,23.75481 -51.062,23.75481 -33.3263,0 -50.9191,-23.75481 -17.5928,-23.91317 -17.5928,-69.36404 0,-45.292503 17.5928,-69.205677 17.5928,-23.913174 50.9191,-23.913174 z"
         style="font-style:normal;font-variant:normal;font-weight:normal;font-stretch:normal;font-size:421.81655884px;line-height:1.25;font-family:Menlo;-inkscape-font-specification:Menlo;font-variant-ligatures:normal;font-variant-caps:normal;font-variant-numeric:normal;text-align:start;letter-spacing:0px;word-spacing:0px;writing-mode:lr-tb;text-anchor:start;display:inline;fill:#0e0140;fill-opacity:1;stroke:none;stroke-width:1.60536587"
         id="path862"
         inkscape:connector-curvature="0" />
    </g>
    <path
       style="display:inline;fill:#00276f;fill-opacity:1;stroke:none;stroke-width:0.26458332px;stroke-linecap:butt;stroke-linejoin:miter;stroke-opacity:1"
       d="m 232.73612,199.15733 c 7.48354,14.96709 26.99466,23.89743 82.85355,18.17432 23.12745,-45.37009 46.2161,-101.50867 9.6217,-114.92589 -22.57728,93.7107 -92.47525,96.75157 -92.47525,96.75157 z"
       id="path829"
       inkscape:connector-curvature="0"
       sodipodi:nodetypes="cccc" />
    <path
       style="display:inline;fill:#00276f;fill-opacity:1;stroke:none;stroke-width:0.26458332px;stroke-linecap:butt;stroke-linejoin:miter;stroke-opacity:1"
       d="m 339.51422,224.00553 c 7.80847,-0.59534 23.40115,-1.08577 25.72273,-11.884 5.34539,-21.38156 17.11458,-104.55534 -6.10134,-130.45534 -7.04533,-8.681371 -11.26921,-15.597354 -17.05153,-13.83221 -8.48662,30.889693 -14.31118,142.84964 -2.56986,156.17155 z"
       id="path840"
       inkscape:connector-curvature="0"
       sodipodi:nodetypes="ccccc" />
    <g
       id="g40"
       transform="translate(117.44555,-4.8991016)">
      <path
         sodipodi:nodetypes="ssscssscs"
         inkscape:connector-curvature="0"
         id="path1047"
         d="m 14.128993,148.53896 c 14.436771,-37.1035 75.38062,-94.270175 139.822197,-99.86654 14.9686,-1.299934 16.39569,24.180173 27.37639,27.436495 10.09177,2.992714 11.12172,13.254541 25.65787,26.726955 5.40547,11.53263 15.03517,47.21756 -29.07867,89.14619 -32.57667,30.96298 -125.533847,36.88689 -135.369305,37.0928 -29.127711,0.6098 -32.46385,-15.7005 -20.365536,-19.98364 10.251211,-3.62921 27.862404,-17.28409 21.828062,-26.71482 -16.826519,26.83208 -63.105498,51.57749 -29.871008,-33.83744 z"
         style="display:inline;opacity:1;fill:#7eabff;fill-opacity:1;stroke:none;stroke-width:0.5291667;stroke-linecap:butt;stroke-linejoin:miter;stroke-miterlimit:4;stroke-dasharray:none;stroke-opacity:1" />
      <path
         style="display:inline;opacity:1;fill:#7eabff;fill-opacity:1;stroke:none;stroke-width:0.5291667;stroke-linecap:butt;stroke-linejoin:miter;stroke-miterlimit:4;stroke-dasharray:none;stroke-opacity:1"
         d="m 140.55994,216.63141 c 0,0 53.12234,20.33474 90.55119,7.2464 17.00893,-23.43453 7.8068,-75.32701 0.7055,-96.78089 C 219.4012,89.588427 248.75839,58.971971 230.49502,22.534685 213.63018,21.149223 199.08271,31.737165 193.50478,46.640363 197.5354,24.089207 191.2916,7.6527867 175.83718,-2.0078586 155.16805,13.302081 143.23275,39.526031 154.29432,48.6129 c 10.4517,25.307864 36.98724,42.72491 55.48243,63.7462 14.41682,16.8681 17.97843,81.58723 -69.21684,104.27231 z"
         id="path1113"
         inkscape:connector-curvature="0"
         sodipodi:nodetypes="ccsccccccc" />
      <path
         style="display:inline;opacity:1;fill:#7eabff;fill-opacity:1;stroke:none;stroke-width:0.26458332px;stroke-linecap:butt;stroke-linejoin:miter;stroke-opacity:1"
         d="m 243.78117,220.14938 c 34.09885,-72.42898 10.64978,-126.549415 -4.14088,-140.937539 -17.35664,55.044129 23.84658,5.952438 4.14088,140.937539 z"
         id="path1116"
         inkscape:connector-curvature="0"
         sodipodi:nodetypes="ccc" />
      <path
         style="display:inline;opacity:1;fill:#7eabff;fill-opacity:1;stroke:none;stroke-width:0.29301044px;stroke-linecap:butt;stroke-linejoin:miter;stroke-opacity:1"
         d="M 137.08416,46.756728 C 99.754311,44.512338 128.36961,19.779148 109.04593,-0.07985813 141.20356,10.900133 116.5631,34.663179 137.08416,46.756728 Z"
         id="path1127"
         inkscape:connector-curvature="0"
         sodipodi:nodetypes="ccc" />
      <path
         style="display:inline;opacity:1;fill:#7eabff;fill-opacity:1;stroke:none;stroke-width:0.30464315px;stroke-linecap:butt;stroke-linejoin:miter;stroke-opacity:1"
         d="m 151.27696,47.441876 c -36.01517,-20.638777 -4.7784,-30.715696 -7.08657,-49.404173 14.87738,18.527122 -7.00733,24.119962 7.08657,49.404173 z"
         id="path1129"
         inkscape:connector-curvature="0"
         sodipodi:nodetypes="ccc" />
      <ellipse
         transform="matrix(0.98710871,-0.16005125,0.16064173,0.98701278,0,0)"
         ry="15.116187"
         rx="12.494164"
         cy="129.95555"
         cx="80.947205"
         id="ellipse1134"
         style="display:inline;opacity:1;fill:#00276f;fill-opacity:1;stroke:none;stroke-width:1.60054851;stroke-linejoin:round;stroke-miterlimit:4;stroke-dasharray:none;stroke-opacity:1" />
      <path
         style="display:inline;opacity:1;fill:#00276f;fill-opacity:1;stroke:none;stroke-width:0.31407553px;stroke-linecap:butt;stroke-linejoin:miter;stroke-opacity:1"
         d="m 156.21853,93.225614 c -10.58854,6.524222 -38.90784,2.910653 -47.56144,2.684115 -13.511425,-0.353709 -29.239289,8.229161 -37.463431,22.462521 -1.01789,1.76164 -1.920834,3.60984 -2.690401,5.53837 3.398864,-29.414522 34.005322,-34.63451 48.717402,-33.824224 12.13526,0.668364 35.01228,2.104984 38.99787,3.139218 z"
         id="path1140"
         inkscape:connector-curvature="0"
         sodipodi:nodetypes="csscsc" />
      <path
         sodipodi:nodetypes="ccc"
         inkscape:connector-curvature="0"
         id="path1142"
         d="M 84.070187,80.758506 C 80.492093,89.979643 74.072092,92.77366 76.530722,100.19877 86.793445,95.380089 84.467859,87.001227 84.070187,80.758506 Z"
         style="display:inline;opacity:1;fill:#00276f;fill-opacity:1;stroke:none;stroke-width:0.06536313;stroke-linecap:butt;stroke-linejoin:miter;stroke-miterlimit:4;stroke-dasharray:none;stroke-opacity:1" />
      <path
         style="display:inline;opacity:1;fill:#00276f;fill-opacity:1;stroke:none;stroke-width:0.07081115;stroke-linecap:butt;stroke-linejoin:miter;stroke-miterlimit:4;stroke-dasharray:none;stroke-opacity:1"
         d="m 89.556082,91.797432 c 6.604594,-0.735778 6.960441,-10.250045 6.332405,-13.537 -2.796247,4.884156 -8.20325,10.1311 -6.332405,13.537 z"
         id="path1144"
         inkscape:connector-curvature="0"
         sodipodi:nodetypes="ccc" />
      <path
         style="display:inline;opacity:1;fill:#00276f;fill-opacity:1;stroke:none;stroke-width:0.07074009;stroke-linecap:butt;stroke-linejoin:miter;stroke-miterlimit:4;stroke-dasharray:none;stroke-opacity:1"
         d="m 69.015708,93.556925 c -0.257878,9.157225 -4.541687,13.236915 -0.677417,18.438665 9.008845,-8.14595 2.456122,-12.898882 0.677417,-18.438665 z"
         id="path1146"
         inkscape:connector-curvature="0"
         sodipodi:nodetypes="ccc" />
      <path
         sodipodi:nodetypes="cscsccc"
         inkscape:connector-curvature="0"
         id="path1160"
         d="m 68.186905,127.09739 c 10.520842,14.09957 38.606995,12.16222 56.487585,-1.68587 12.38757,-9.59388 18.96594,-28.045995 30.11482,-27.858338 -15.00745,-2.834945 -25.21753,28.529928 -46.03896,33.847988 -12.293834,3.14001 -28.84182,5.6167 -32.540948,-4.34684 -0.684221,-1.85135 -7.363028,-2.16948 -8.022497,0.0431 z"
         style="display:inline;opacity:1;fill:#00276f;fill-opacity:1;stroke:none;stroke-width:0.26458332px;stroke-linecap:butt;stroke-linejoin:miter;stroke-opacity:1" />
      <ellipse
         style="display:inline;opacity:1;fill:#00276f;fill-opacity:1;stroke:none;stroke-width:1.39326406;stroke-linejoin:round;stroke-miterlimit:4;stroke-dasharray:none;stroke-opacity:1"
         id="ellipse1075"
         cx="-20.543091"
         cy="181.05923"
         rx="7.662293"
         ry="10.308202"
         transform="matrix(0.9786676,-0.20545005,0.19609361,0.98058518,0,0)" />
      <path
         sodipodi:nodetypes="ccc"
         inkscape:connector-curvature="0"
         id="path1120"
         d="M 208.96064,92.391138 C 238.89394,73.812521 231.2092,54.30744 223.74726,34.233924 206.98711,42.702149 198.60262,58.342627 208.96064,92.391138 Z"
         style="display:inline;opacity:1;fill:#00276f;fill-opacity:1;stroke:none;stroke-width:0.26458332px;stroke-linecap:butt;stroke-linejoin:miter;stroke-opacity:1" />
      <path
         sodipodi:nodetypes="ccc"
         inkscape:connector-curvature="0"
         id="path1124"
         d="M 176.48294,64.676115 C 191.51859,37.87421 188.41556,22.188724 174.26271,9.1396865 156.10012,25.159259 157.5328,42.856006 176.48294,64.676115 Z"
         style="display:inline;opacity:1;fill:#00276f;fill-opacity:1;stroke:none;stroke-width:0.26458332px;stroke-linecap:butt;stroke-linejoin:miter;stroke-opacity:1" />
    </g>
  </g>
</svg>
