<?xml version="1.0" encoding="UTF-8"?>
<svg width="1264.5" height="674.42" version="1.1" viewBox="0 0 334.56759 178.43957" xmlns="http://www.w3.org/2000/svg" xmlns:cc="http://creativecommons.org/ns#" xmlns:dc="http://purl.org/dc/elements/1.1/" xmlns:rdf="http://www.w3.org/1999/02/22-rdf-syntax-ns#">
<metadata>
<rdf:RDF>
<cc:Work rdf:about="">
<dc:format>image/svg+xml</dc:format>
<dc:type rdf:resource="http://purl.org/dc/dcmitype/StillImage"/>
<dc:title/>
</cc:Work>
</rdf:RDF>
</metadata>
<g transform="translate(-97.18 -84.779)">
<g transform="matrix(.83297 0 0 .83297 198.92 82.905)">
<g>
<path d="m243.22 101.23c10.678 28.009-33.253 39.555-13.938 55.838 13.714 11.561 27.636-24.38 37.256-16.274 11.132 9.3803 12.243 20.878 10.958 29.132-2.4248 1.7419-5.8586-1.1339-13.218 13.34-11.323 22.268-64.227 20.577-81.149 3.6558-37.487-46.624 42.022-118.3 60.092-85.692z" fill="#ff7f2a"/>
</g>
<g>
<path d="m236.42 108.29c9.0716-9.0716 24.898 7.2511 34.49-14.174 1.3269 13.327-10.287 19.876-18.494 19.524-5.8848-0.25265-17.725 2.0443-22.894 16.762-2.0582 5.8606 6.8981-22.112 6.8981-22.112z" fill="#fc0"/>
</g>
<g>
<path d="m81.265 73.327c3.6376 24.005 19.654 41.791 61.61 46.491 36.097 4.0437 42.381-2.3639 62.121-19.639 19.805-17.333 56.696 11.29 9.6032 44.189-52.685 36.806-0.2457 61.176 49.261 22.619 0 0 14.317 14.498 15.654 20.111-57.263 66.524-189.59 4.618-148.58-34.239 36.812-34.878-54.773-35.766-56.575-4.1278-0.22755 3.9943 3.3567 8.6453 8.7935 6.617-11.583 16.584-40.174 5.549-42.333-11.339-3.6961-28.908 64.256-24.568 19.277-61.232-38.127-31.079 20.138-47.165 21.167-9.4494z" fill="#e9afaf"/>
</g>
<g>
<path d="m39.021 109.52c-6.7406-18.69 25.415-29.554 24.856-46.772-3.3689-54.692 78.659-49.803 110.65-4.2763-3.6805-13.988-53.605-57.583-110.38-26.46-17.297 9.4815-24.57-35.061-51.621-29.23 29.859 6.6788 21.699 35.558 10.265 42.412-5.5883 3.35-14.632 10.858-11.984 24.887-5.4428 19.173 26.323 24.438 8.7061 43.982-15.638 16.834 31.772 23.376 19.511-4.5436z" fill="#a00"/>
</g>
<g>
<circle cx="12.155" cy="69.832" r="11.092" fill="#ff7f2a"/>
<circle cx="47.039" cy="75.3" r="10.958" fill="#2a7fff"/>
</g>
<g>
<circle cx="12.417" cy="70.099" r="5.479"/>
<circle cx="46.772" cy="76.097" r="7.2163"/>
</g>
</g>
</g>
<flowRoot transform="translate(-97.18 -4.7377)" fill="#000000" font-family="'Futura Std'" font-size="192px" letter-spacing="0px" word-spacing="0px" style="font-variant-caps:normal;font-variant-ligatures:normal;font-variant-numeric:normal;line-height:1.25" xml:space="preserve"><flowRegion font-size="192px"><rect x="300" y="120" width="300" height="140"/></flowRegion><flowPara/></flowRoot>
<flowRoot transform="translate(-97.18 -4.7377)" fill="#000000" font-family="'Futura Std'" font-size="192px" letter-spacing="0px" word-spacing="0px" style="font-variant-caps:normal;font-variant-ligatures:normal;font-variant-numeric:normal;line-height:1.25" xml:space="preserve"><flowRegion font-size="192px"><rect x="140" y="120" width="460" height="280"/></flowRegion><flowPara/></flowRoot>
<g transform="matrix(.26458 0 0 .26458 -70.62 -50.57)" fill="#a00" style="font-variant-caps:normal;font-variant-ligatures:normal;font-variant-numeric:normal" aria-label="art">
<path d="m312.03 283.87c19.008 0 30.336 14.592 30.336 32.64 0 18.24-10.368 34.176-30.144 34.176-19.2 0-29.568-16.704-29.568-34.368 0-16.896 11.52-32.448 29.376-32.448zm44.928-11.712h-15.36v12.864h-0.384c-7.488-9.6-18.624-15.36-30.912-15.36-27.072 0-43.392 22.08-43.392 47.808 0 24.96 16.704 47.424 43.2 47.424 12.672 0 23.232-4.992 31.104-14.976h0.384v12.48h15.36z"/>
<path d="m399.81 272.16h-15.36v90.24h15.36v-45.12c0-11.712 0.768-33.408 17.664-33.408 4.032 0 6.144 1.92 9.216 4.032l7.296-14.016c-4.416-2.496-8.64-4.224-13.824-4.224-9.984 0-14.592 5.184-19.968 12.288h-0.384z"/>
<path d="m469.6 286.37h16.128v-14.208h-16.128v-32.448h-15.36v32.448h-9.408v14.208h9.408v76.032h15.36z"/>
</g>
<flowRoot transform="matrix(.26458 0 0 .26458 -93.568 53.065)" fill="#aa0000" font-family="'Futura Std'" font-size="40px" letter-spacing="0px" word-spacing="0px" style="font-variant-caps:normal;font-variant-ligatures:normal;font-variant-numeric:normal;line-height:1.25" xml:space="preserve"><flowRegion><rect x="260" y="180" width="380" height="300" fill="#a00"/></flowRegion><flowPara font-size="192px">nigartht</flowPara></flowRoot>
<g transform="matrix(.26458 0 0 .26458 -60.336 -76.791)" fill="#0055d4" style="font-variant-caps:normal;font-variant-ligatures:normal;font-variant-numeric:normal" aria-label="night">
<path d="m249.95 592.16h-15.36v90.24h15.36v-42.816c0-16.128 1.344-35.712 22.464-35.712 17.856 0 19.008 13.056 19.008 27.648v50.88h15.36v-53.568c0-21.12-5.76-39.168-30.72-39.168-11.136 0-19.392 4.8-25.728 13.44h-0.384z"/>
<path d="m354.08 592.16h-15.36v90.24h15.36zm-7.68-44.928c-5.952 0-10.944 4.992-10.944 10.944 0 6.144 4.992 10.944 10.944 10.944s10.944-4.8 10.944-10.944c0-5.952-4.992-10.944-10.944-10.944z"/>
<path d="m422.57 603.87c19.008 0 30.336 14.592 30.336 32.64 0 18.24-10.368 34.176-30.144 34.176-19.2 0-29.568-16.704-29.568-34.368 0-16.896 11.52-32.448 29.376-32.448zm44.928-11.712h-15.36v12.864h-0.384c-7.296-9.792-18.24-15.36-30.72-15.36-26.688 0-43.584 22.656-43.584 48 0 25.152 16.704 47.232 43.008 47.232 12.096 0 24-5.568 31.296-14.976h0.384v10.752c0 20.352-5.184 37.824-28.992 37.824-16.512 0-28.608-10.56-28.8-27.264h-15.36c0.576 25.536 19.2 41.472 44.352 41.472 13.44 0 26.496-5.184 34.944-15.936 9.216-11.904 9.216-24.384 9.216-38.784z"/>
<path d="m497.47 524v158.4h15.36v-42.816c0-16.128 1.344-35.712 22.464-35.712 17.856 0 19.008 13.056 19.008 27.648v50.88h15.36v-53.568c0-21.12-5.76-39.168-30.72-39.168-11.136 0-19.392 4.8-25.728 13.44l-0.384-0.384v-78.72z"/>
<path d="m614.84 606.37h16.128v-14.208h-16.128v-32.448h-15.36v32.448h-9.408v14.208h9.408v76.032h15.36z"/>
</g>
<g transform="matrix(.26458 0 0 .26458 -36.223 -64.784)" style="font-variant-caps:normal;font-variant-ligatures:normal;font-variant-numeric:normal" aria-label="and">
<path d="m160.23 460.39c7.392 0 11.797 5.6747 11.797 12.693 0 7.0933-4.032 13.291-11.723 13.291-7.4667 0-11.499-6.496-11.499-13.365 0-6.5707 4.48-12.619 11.424-12.619zm17.472-4.5547h-5.9733v5.0027h-0.14933c-2.912-3.7333-7.2427-5.9733-12.021-5.9733-10.528 0-16.875 8.5867-16.875 18.592 0 9.7067 6.496 18.443 16.8 18.443 4.928 0 9.0347-1.9413 12.096-5.824h0.14933v4.8533h5.9733z"/>
<path d="m194.67 455.84h-5.9733v35.093h5.9733v-16.651c0-6.272 0.52267-13.888 8.736-13.888 6.944 0 7.392 5.0773 7.392 10.752v19.787h5.9733v-20.832c0-8.2133-2.24-15.232-11.947-15.232-4.3307 0-7.5413 1.8667-10.005 5.2267h-0.14933z"/>
<path d="m242.63 460.39c7.392 0 11.797 5.6747 11.797 12.693 0 7.0933-4.032 13.291-11.723 13.291-7.4667 0-11.499-6.496-11.499-13.365 0-6.5707 4.48-12.619 11.424-12.619zm11.499 30.539h5.9733v-61.6h-5.9733v31.509h-0.14933c-2.8373-3.7333-7.3173-5.9733-12.021-5.9733-10.528 0-16.875 8.5867-16.875 18.592 0 9.7067 6.496 18.443 16.8 18.443 4.7787 0 9.184-2.016 12.096-5.824h0.14933z"/>
</g>
</svg>
