<?xml version="1.0" standalone="no"?>
<!DOCTYPE svg PUBLIC "-//W3C//DTD SVG 20010904//EN"
 "http://www.w3.org/TR/2001/REC-SVG-20010904/DTD/svg10.dtd">
<svg version="1.0" xmlns="http://www.w3.org/2000/svg"
 width="700.000000pt" height="700.000000pt" viewBox="0 0 700.000000 700.000000"
 preserveAspectRatio="xMidYMid meet">
<metadata>
Created by potrace 1.11, written by Peter Selinger 2001-2013
</metadata>
<g transform="translate(0.000000,700.000000) scale(0.100000,-0.100000)"
fill="#000000" stroke="none">
<path d="M865 6975 c-141 -31 -254 -97 -392 -229 -162 -155 -323 -372 -444
-598 -20 -37 2 -15 93 95 52 61 137 164 190 227 125 149 225 245 320 308 145
94 293 122 443 84 202 -51 343 -156 460 -342 203 -322 249 -811 115 -1221 -74
-227 -160 -361 -357 -560 l-144 -146 -92 -7 c-171 -13 -290 -47 -423 -121
-394 -220 -577 -703 -428 -1129 87 -249 272 -450 513 -556 119 -52 212 -72
356 -76 l130 -4 178 -237 c232 -310 325 -450 392 -586 63 -130 87 -220 88
-332 0 -130 -34 -223 -143 -385 -257 -384 -279 -680 -69 -905 283 -302 957
-341 1346 -77 170 115 261 280 264 476 2 133 -23 230 -102 407 -68 154 -89
239 -89 365 0 202 72 368 264 608 41 50 116 136 167 190 l94 99 107 -22 c532
-106 1046 231 1164 764 28 126 23 323 -10 450 -45 176 -129 321 -264 458 -65
66 -204 168 -248 181 -12 4 -25 17 -29 29 -13 42 -17 451 -6 560 46 454 227
831 521 1084 320 276 771 436 1230 437 141 0 177 -3 250 -23 220 -59 375 -181
466 -366 112 -229 120 -492 23 -830 -84 -294 -289 -690 -530 -1027 -176 -245
-424 -546 -618 -751 -105 -110 -92 -104 59 27 232 204 504 489 681 716 301
385 507 790 585 1150 24 107 25 130 22 330 -4 210 -5 217 -35 305 -44 127 -97
216 -181 306 -125 133 -277 219 -476 269 -623 157 -1536 -66 -2632 -643 -110
-57 -231 -116 -270 -130 -280 -101 -563 -22 -910 255 -44 34 -232 213 -419
398 -500 494 -610 584 -823 676 -137 59 -267 76 -387 49z m400 -2454 c188 -39
354 -129 476 -258 156 -165 234 -347 246 -568 9 -183 -27 -338 -114 -495 -66
-118 -215 -267 -333 -333 -412 -230 -927 -109 -1185 278 -180 270 -202 603
-60 892 179 364 582 565 970 484z m2821 -327 c286 -59 525 -245 654 -509 62
-127 91 -239 97 -380 19 -428 -261 -813 -684 -942 -79 -24 -105 -26 -248 -27
-188 -1 -271 16 -420 89 -508 246 -686 883 -379 1357 57 88 158 195 240 254
106 76 265 144 382 164 84 14 278 11 358 -6z"/>
<path d="M950 4040 c-214 -70 -350 -255 -350 -476 0 -276 221 -498 495 -497
276 0 498 222 498 498 0 218 -145 413 -354 475 -84 25 -212 25 -289 0z"/>
<path d="M3780 3750 c-214 -26 -403 -186 -471 -400 -32 -100 -30 -242 5 -343
61 -180 197 -315 371 -370 92 -29 253 -31 335 -3 154 52 276 154 343 286 116
231 77 479 -103 661 -133 135 -292 191 -480 169z"/>
</g>
</svg>
