<?xml version="1.0" standalone="no"?>
<!DOCTYPE svg PUBLIC "-//W3C//DTD SVG 20010904//EN"
 "http://www.w3.org/TR/2001/REC-SVG-20010904/DTD/svg10.dtd">
<svg version="1.0" xmlns="http://www.w3.org/2000/svg"
 width="884.000000pt" height="884.000000pt" viewBox="0 0 884.000000 884.000000"
 preserveAspectRatio="xMidYMid meet">
<metadata>
Created by potrace 1.11, written by Peter Selinger 2001-2013
</metadata>
<g transform="translate(0.000000,884.000000) scale(0.100000,-0.100000)"
fill="#000000" stroke="none">
<path d="M810 8829 c-165 -29 -331 -118 -481 -258 -82 -76 -259 -283 -259
-303 0 -5 26 17 57 48 192 188 380 316 553 374 93 31 274 39 370 16 198 -48
409 -201 593 -429 107 -133 160 -215 232 -362 106 -216 169 -425 201 -668 18
-138 15 -496 -5 -602 -51 -264 -151 -507 -279 -678 -32 -41 -150 -176 -264
-299 -114 -124 -224 -246 -243 -271 -36 -47 -85 -141 -85 -164 0 -6 19 -14 43
-18 302 -45 544 -227 664 -500 113 -258 81 -582 -81 -808 -95 -135 -227 -240
-376 -300 -44 -17 -80 -35 -80 -40 0 -28 178 -284 409 -587 389 -509 503 -722
518 -970 5 -78 2 -111 -16 -179 -29 -116 -57 -173 -166 -336 -117 -174 -184
-305 -232 -449 -32 -99 -37 -125 -41 -241 -5 -152 8 -219 63 -330 67 -136 175
-242 335 -328 197 -107 490 -162 727 -138 312 32 528 123 686 290 113 120 167
260 167 431 0 161 -34 283 -141 510 -88 189 -102 238 -101 370 1 273 122 490
606 1084 171 209 286 358 286 368 0 3 -27 9 -61 12 -211 24 -420 153 -555 343
-164 228 -193 555 -73 811 94 203 246 348 449 427 169 66 377 73 547 18 87
-29 215 -92 228 -113 3 -6 12 -10 18 -10 9 0 10 43 4 182 -16 325 16 704 81
993 205 902 810 1554 1726 1859 165 56 416 116 566 137 109 15 355 15 445 0
108 -18 281 -81 374 -136 106 -63 232 -185 293 -285 374 -605 66 -1579 -856
-2705 -141 -172 -347 -405 -494 -556 -74 -77 -130 -139 -126 -139 5 0 90 71
189 157 1002 878 1589 1858 1588 2653 0 348 -99 613 -306 822 -364 367 -1017
474 -1844 303 -614 -126 -1314 -397 -2078 -802 -124 -67 -261 -131 -315 -149
-364 -124 -741 -21 -1190 325 -164 126 -298 250 -690 635 -529 522 -706 676
-936 816 -228 139 -464 201 -644 169z"/>
<path d="M961 4784 c-232 -62 -381 -307 -327 -537 27 -115 83 -200 179 -273
139 -104 358 -113 506 -20 20 13 61 48 90 77 204 209 151 560 -109 712 -93 54
-229 71 -339 41z"/>
<path d="M4400 4373 c-208 -35 -391 -204 -445 -410 -19 -71 -19 -202 -1 -269
52 -194 211 -355 396 -398 200 -48 398 10 534 155 163 173 199 402 96 618
-103 214 -348 343 -580 304z"/>
</g>
</svg>
