<?xml version="1.0" standalone="no"?>
<!DOCTYPE svg PUBLIC "-//W3C//DTD SVG 20010904//EN"
 "http://www.w3.org/TR/2001/REC-SVG-20010904/DTD/svg10.dtd">
<svg version="1.0" xmlns="http://www.w3.org/2000/svg"
 width="954.000000pt" height="954.000000pt" viewBox="0 0 954.000000 954.000000"
 preserveAspectRatio="xMidYMid meet">
<metadata>
Created by potrace 1.11, written by Peter Selinger 2001-2013
</metadata>
<g transform="translate(0.000000,954.000000) scale(0.100000,-0.100000)"
fill="#000000" stroke="none">
<path d="M1460 9524 c-119 -14 -198 -27 -209 -33 -7 -5 12 -13 46 -20 87 -20
287 -85 388 -126 279 -115 482 -250 665 -441 222 -232 342 -479 401 -824 16
-96 16 -381 0 -485 -71 -456 -269 -861 -560 -1144 -45 -43 -144 -118 -241
-183 -204 -137 -319 -228 -435 -349 -175 -182 -287 -357 -371 -578 -13 -35
-24 -64 -24 -66 0 -1 46 -5 103 -8 304 -18 570 -192 705 -462 132 -264 109
-603 -57 -841 -147 -212 -358 -338 -610 -363 -58 -6 -106 -13 -109 -16 -5 -5
56 -116 107 -195 63 -97 181 -251 336 -435 316 -377 425 -535 490 -715 128
-358 31 -705 -309 -1100 -119 -138 -162 -194 -200 -263 -77 -139 -98 -295 -56
-413 126 -360 733 -556 1260 -407 83 23 228 95 295 147 124 95 215 233 256
391 16 62 21 110 21 210 0 155 -23 281 -84 455 -23 63 -54 151 -69 196 -182
518 6 1007 633 1649 l88 90 -118 2 c-240 3 -428 86 -593 260 -76 81 -126 159
-168 263 -76 191 -72 429 11 622 104 245 328 430 586 483 269 56 545 -22 740
-209 160 -153 240 -328 259 -566 l8 -95 86 115 c184 247 278 436 325 655 14
66 17 143 19 450 2 372 11 498 49 710 133 734 495 1293 1089 1682 638 419
1563 602 2166 428 443 -127 680 -411 681 -817 1 -378 -234 -905 -658 -1478
-209 -281 -489 -614 -701 -832 -42 -43 -72 -78 -67 -78 15 0 257 222 420 386
418 420 730 839 926 1247 160 332 239 681 210 930 -54 462 -347 747 -865 843
-138 25 -484 30 -676 10 -662 -72 -1416 -338 -2389 -842 -309 -161 -362 -179
-520 -179 -69 0 -131 6 -155 13 -209 70 -344 160 -551 366 -142 143 -223 237
-539 631 -341 426 -497 602 -690 778 -340 310 -638 469 -994 532 -83 14 -292
26 -351 19z"/>
<path d="M1165 4822 c-191 -17 -344 -160 -374 -350 -38 -236 140 -456 380
-470 317 -18 534 309 393 595 -69 141 -243 239 -399 225z"/>
<path d="M3714 4499 c-199 -25 -384 -183 -445 -378 -26 -84 -28 -226 -4 -308
63 -218 251 -374 480 -398 186 -20 409 91 504 249 78 131 105 265 77 396 -61
290 -321 477 -612 439z"/>
</g>
</svg>
